<?xml version="1.0" standalone="no"?>
<!DOCTYPE svg PUBLIC "-//W3C//DTD SVG 20010904//EN"
 "http://www.w3.org/TR/2001/REC-SVG-20010904/DTD/svg10.dtd">
<svg version="1.0" xmlns="http://www.w3.org/2000/svg"
 width="1563.000000pt" height="1563.000000pt" viewBox="0 0 1563.000000 1563.000000"
 preserveAspectRatio="xMidYMid meet">
<metadata>
Created by potrace 1.16, written by Peter Selinger 2001-2019
</metadata>
<g transform="translate(0.000000,1563.000000) scale(0.100000,-0.100000)"
fill="#000000" stroke="none">
<path d="M14005 9270 c-16 -4 -90 -8 -162 -9 -123 -1 -133 -2 -133 -20 0 -14
10 -20 40 -24 54 -7 88 -31 106 -72 19 -46 21 -1359 2 -1400 -14 -31 -50 -52
-107 -61 -28 -5 -41 -12 -41 -23 0 -14 26 -16 245 -16 220 0 245 2 245 16 0
11 -12 19 -37 24 -101 19 -103 27 -103 393 0 322 6 375 55 459 58 97 134 145
235 147 86 1 125 -20 153 -82 21 -45 22 -63 25 -418 4 -390 0 -437 -40 -473
-11 -11 -38 -23 -59 -26 -27 -5 -39 -12 -39 -23 0 -15 23 -17 240 -17 219 0
240 2 240 17 0 12 -12 19 -46 24 -58 8 -92 38 -104 89 -5 22 -10 194 -10 382
0 203 -4 362 -11 392 -16 74 -57 131 -120 166 -50 28 -61 30 -154 30 -80 -1
-111 -5 -157 -23 -72 -29 -139 -90 -178 -162 l-30 -55 0 388 c0 303 -3 387
-12 386 -7 -1 -26 -5 -43 -9z"/>
<path d="M2563 9231 c-49 -23 -76 -66 -75 -124 1 -46 22 -81 65 -107 40 -25
82 -25 126 -2 104 56 85 210 -28 242 -45 12 -38 13 -88 -9z"/>
<path d="M4123 9231 c-49 -23 -76 -66 -75 -124 1 -46 22 -81 65 -107 40 -25
82 -25 126 -2 104 56 85 210 -28 242 -45 12 -38 13 -88 -9z"/>
<path d="M820 9109 c0 -12 13 -19 46 -24 26 -3 57 -11 69 -17 50 -23 50 -17
50 -677 0 -339 -3 -628 -8 -643 -9 -33 -45 -53 -110 -63 -34 -5 -47 -12 -47
-24 0 -14 26 -16 265 -16 239 0 265 2 265 16 0 12 -13 19 -46 24 -119 18 -118
14 -122 383 l-3 302 346 0 346 0 -3 -307 c-3 -328 -5 -339 -54 -361 -12 -6
-42 -14 -68 -17 -33 -5 -46 -12 -46 -24 0 -14 26 -16 265 -16 239 0 265 2 265
16 0 12 -13 19 -47 24 -75 11 -99 28 -112 79 -15 59 -15 1185 -1 1238 14 48
48 74 110 82 38 5 50 11 50 24 0 16 -21 17 -265 17 -239 0 -265 -2 -265 -16 0
-12 13 -19 46 -24 26 -3 56 -11 68 -17 49 -22 51 -33 54 -355 l3 -303 -345 0
-346 0 0 273 c0 149 5 290 10 312 12 53 46 81 109 89 39 5 51 11 51 24 0 16
-21 17 -265 17 -239 0 -265 -2 -265 -16z"/>
<path d="M9400 9109 c0 -12 13 -19 46 -24 26 -3 57 -11 69 -17 50 -23 50 -17
50 -677 0 -339 -3 -628 -8 -643 -9 -33 -45 -53 -110 -63 -34 -5 -47 -12 -47
-24 0 -15 34 -16 378 -15 333 0 383 3 432 18 215 70 319 205 308 400 -6 107
-35 172 -102 233 -63 57 -132 90 -236 111 -44 9 -80 20 -80 24 0 5 6 8 13 8
29 0 155 70 194 108 23 23 55 65 70 94 25 48 28 63 28 153 0 91 -2 104 -27
147 -56 93 -154 154 -284 174 -23 3 -188 7 -368 8 -296 1 -326 -1 -326 -15z
m667 -49 c28 -12 62 -33 76 -48 103 -107 93 -405 -16 -510 -54 -52 -98 -65
-240 -70 l-129 -4 4 288 c2 223 6 295 17 314 18 33 14 30 58 46 52 20 166 12
230 -16z m40 -685 c152 -46 233 -204 204 -396 -20 -126 -78 -209 -181 -257
-47 -22 -72 -27 -176 -30 -115 -4 -121 -3 -148 19 -15 14 -31 41 -36 64 -11
48 -13 608 -2 620 12 13 283 -2 339 -20z"/>
<path d="M13299 9060 c-14 -4 -55 -10 -92 -14 l-67 -8 0 -159 0 -159 -100 0
c-93 0 -100 -1 -100 -20 0 -19 7 -20 99 -20 l100 0 3 -427 c4 -476 5 -481 73
-561 88 -102 291 -109 378 -13 43 48 59 77 83 154 16 50 16 60 4 68 -21 13
-30 11 -30 -6 0 -9 -13 -43 -28 -78 -31 -66 -88 -126 -125 -128 -84 -6 -126
13 -151 66 -14 29 -16 93 -16 479 l0 446 155 0 c148 0 155 1 155 20 0 19 -7
20 -155 20 l-155 0 -2 173 -3 173 -26 -6z"/>
<path d="M6633 8751 c-23 -11 -62 -38 -87 -61 l-46 -42 -36 27 c-70 54 -127
69 -254 69 -97 0 -124 -4 -174 -23 -76 -30 -137 -87 -167 -154 -32 -73 -33
-221 -3 -288 43 -93 102 -141 218 -174 l58 -17 -50 -28 c-131 -75 -186 -211
-120 -296 39 -49 76 -57 300 -64 190 -7 211 -10 255 -31 61 -31 88 -75 87
-145 -3 -160 -176 -256 -437 -241 -88 5 -109 9 -166 39 -84 42 -111 81 -111
156 0 37 7 66 22 93 12 22 24 39 27 39 18 1 50 36 42 48 -6 11 -16 10 -52 -4
-206 -81 -228 -267 -41 -354 104 -49 348 -66 497 -35 93 19 203 75 260 130
122 119 136 300 30 393 -73 65 -119 75 -368 81 -217 6 -219 6 -239 31 -55 67
55 181 189 194 151 14 256 92 294 218 18 60 13 178 -11 241 l-22 59 29 36 c26
32 102 86 110 78 1 -1 -2 -19 -8 -40 -23 -83 14 -146 84 -146 57 0 97 43 97
104 0 58 -17 94 -51 112 -39 19 -106 17 -156 -5z m-337 -62 c40 -24 63 -71 76
-157 13 -80 5 -242 -14 -295 -29 -82 -109 -128 -185 -108 -53 15 -80 36 -106
84 -20 39 -22 55 -22 207 0 150 2 169 22 206 26 49 41 62 90 80 45 16 95 10
139 -17z"/>
<path d="M3554 8725 c-65 -32 -126 -95 -169 -175 l-35 -65 0 129 0 128 -22 -7
c-13 -4 -92 -10 -175 -12 -138 -5 -153 -7 -153 -23 0 -13 11 -19 42 -23 53 -7
90 -35 105 -78 16 -46 18 -802 2 -848 -13 -36 -47 -57 -108 -67 -28 -5 -41
-12 -41 -23 0 -14 29 -16 285 -16 255 0 285 2 285 16 0 12 -17 19 -66 27 -76
13 -107 30 -134 75 -19 30 -20 52 -20 312 0 156 5 300 11 325 15 65 62 158
105 209 58 68 156 107 204 81 17 -9 16 -12 -16 -44 -29 -29 -34 -41 -34 -81 0
-38 5 -52 29 -76 41 -41 107 -41 153 0 27 24 32 36 36 87 3 50 0 64 -20 93
-53 79 -169 103 -264 56z"/>
<path d="M5138 8731 c-105 -34 -173 -95 -217 -192 l-21 -44 0 124 0 123 -22
-7 c-13 -4 -92 -10 -175 -12 -138 -5 -153 -7 -153 -23 0 -13 11 -19 42 -23 52
-7 88 -34 104 -78 17 -46 19 -801 3 -848 -13 -36 -47 -57 -108 -67 -28 -5 -41
-12 -41 -23 0 -14 26 -16 245 -16 220 0 245 2 245 16 0 11 -12 19 -37 24 -101
19 -103 27 -103 393 0 322 6 375 55 459 58 97 134 145 235 147 85 1 121 -19
151 -81 24 -48 24 -49 24 -438 0 -440 0 -443 -66 -469 -22 -9 -46 -16 -54 -16
-8 0 -15 -8 -15 -17 0 -17 18 -18 240 -18 217 0 240 2 240 17 0 11 -12 18 -42
23 -55 9 -74 20 -96 52 -15 24 -18 68 -22 423 -6 418 -6 419 -57 492 -58 84
-226 122 -355 79z"/>
<path d="M11075 8736 c-162 -40 -265 -140 -323 -314 -23 -69 -26 -93 -26 -232
-1 -168 12 -238 60 -337 134 -276 557 -327 759 -91 83 98 125 237 125 419 0
244 -86 429 -238 512 -96 52 -246 70 -357 43z m234 -59 c111 -73 161 -235 161
-512 -1 -270 -59 -428 -181 -489 -68 -33 -120 -34 -186 -1 -133 67 -195 266
-179 580 9 191 41 299 110 383 65 77 191 95 275 39z"/>
<path d="M12225 8736 c-162 -40 -265 -140 -323 -314 -23 -69 -26 -93 -26 -232
-1 -168 12 -238 60 -337 134 -276 557 -327 759 -91 83 98 125 237 125 419 0
244 -86 429 -238 512 -96 52 -246 70 -357 43z m234 -59 c111 -73 161 -235 161
-512 -1 -270 -59 -428 -181 -489 -68 -33 -120 -34 -186 -1 -81 41 -139 134
-165 265 -19 98 -16 417 5 503 31 124 86 209 160 247 60 30 149 25 206 -13z"/>
<path d="M2675 8730 c-16 -4 -90 -8 -162 -9 -123 -1 -133 -2 -133 -20 0 -14
10 -20 42 -24 53 -7 90 -35 105 -78 16 -46 18 -802 2 -848 -13 -36 -47 -57
-108 -67 -28 -5 -41 -12 -41 -23 0 -14 26 -16 255 -16 229 0 255 2 255 16 0
12 -13 19 -46 24 -29 4 -57 17 -77 35 l-32 28 -3 496 c-2 384 -5 496 -15 495
-6 -1 -25 -5 -42 -9z"/>
<path d="M4235 8730 c-16 -4 -90 -8 -162 -9 -123 -1 -133 -2 -133 -20 0 -14
10 -20 42 -24 53 -7 90 -35 105 -78 8 -24 12 -150 12 -427 1 -336 -1 -399 -14
-427 -17 -35 -45 -52 -105 -61 -28 -5 -40 -12 -40 -23 0 -14 26 -16 255 -16
229 0 255 2 255 16 0 12 -13 19 -46 24 -29 4 -57 17 -77 35 l-32 28 -3 496
c-2 384 -5 496 -15 495 -6 -1 -25 -5 -42 -9z"/>
<path d="M8829 6265 c-106 -34 -165 -137 -157 -274 7 -115 53 -189 143 -227
59 -25 161 -23 219 5 180 88 182 391 2 483 -52 27 -146 33 -207 13z m177 -91
c89 -59 86 -273 -5 -327 -36 -21 -122 -22 -161 -2 -83 43 -100 245 -26 314 46
43 138 50 192 15z"/>
<path d="M9470 6275 c-8 -2 -32 -6 -53 -10 -53 -9 -106 -57 -113 -106 -6 -36
-9 -39 -40 -39 -32 0 -34 -2 -34 -35 0 -33 2 -35 35 -35 l35 0 0 -150 0 -150
45 0 44 0 3 148 3 147 53 3 53 3 -3 32 c-3 31 -5 32 -55 35 -43 2 -53 6 -53
21 0 32 26 54 71 60 42 6 44 7 47 44 3 37 0 40 -38 32z"/>
<path d="M9727 6270 c-27 -5 -59 -16 -73 -25 -31 -20 -64 -73 -64 -102 0 -20
-5 -23 -35 -23 -33 0 -35 -2 -35 -35 0 -33 2 -35 35 -35 l35 0 0 -150 0 -150
45 0 44 0 3 148 3 147 53 3 53 3 -3 32 c-3 31 -5 32 -55 35 -43 2 -53 6 -53
21 0 32 26 54 71 60 42 6 44 7 47 44 4 41 6 40 -71 27z"/>
<path d="M4969 6018 c-63 -138 -115 -255 -117 -260 -2 -4 18 -8 45 -8 l48 0
24 60 24 60 129 0 129 0 26 -60 26 -60 48 0 48 0 -35 78 c-19 42 -72 159 -117
260 l-81 182 -42 0 -41 0 -114 -252z m205 38 c26 -60 46 -111 46 -112 0 -2
-43 -4 -95 -4 -52 0 -95 4 -95 8 0 4 16 46 36 92 20 47 40 96 45 109 5 13 11
22 14 20 2 -3 24 -54 49 -113z"/>
<path d="M5640 6265 c0 -3 39 -121 86 -261 l87 -255 40 3 40 3 65 187 c41 115
69 182 74 174 4 -7 32 -85 62 -172 30 -87 57 -167 61 -177 6 -14 17 -17 48
-15 l40 3 87 258 87 257 -46 0 -46 0 -59 -186 c-33 -102 -63 -187 -67 -190 -4
-2 -36 81 -71 186 l-63 190 -36 0 -35 0 -58 -167 c-32 -93 -63 -179 -69 -193
-8 -22 -17 -2 -71 165 l-62 190 -47 3 c-26 2 -47 0 -47 -3z"/>
<path d="M7500 6230 l0 -40 90 0 90 0 0 -220 0 -220 50 0 50 0 0 220 0 219 88
3 87 3 3 38 3 37 -230 0 -231 0 0 -40z"/>
<path d="M6550 6102 c-38 -15 -45 -22 -42 -42 4 -37 15 -42 55 -25 52 21 130
20 150 -3 10 -10 17 -28 17 -39 0 -18 -9 -21 -80 -27 -91 -7 -143 -28 -159
-63 -31 -67 7 -133 87 -153 56 -13 92 -3 135 38 l27 26 0 -32 c0 -31 2 -32 40
-32 l40 0 0 123 c0 148 -10 188 -53 219 -43 31 -152 36 -217 10z"/>
<path d="M6890 6109 c0 -6 32 -84 70 -174 39 -90 70 -170 70 -177 0 -7 -13
-41 -30 -75 l-29 -63 48 0 49 0 102 238 c56 130 104 243 107 250 4 10 -6 12
-43 10 l-48 -3 -50 -128 c-27 -70 -52 -124 -56 -120 -4 4 -29 63 -55 131 l-47
122 -44 0 c-24 0 -44 -5 -44 -11z"/>
<path d="M8095 6104 c-50 -26 -75 -55 -90 -108 -48 -160 82 -289 242 -241 111
33 156 165 96 281 -38 73 -169 109 -248 68z m148 -78 c46 -42 48 -137 5 -183
-22 -23 -75 -31 -113 -17 -26 10 -45 59 -45 114 0 44 5 56 29 81 38 37 87 39
124 5z"/>
<path d="M9857 6113 c-4 -3 -7 -87 -7 -185 l0 -178 50 0 50 0 0 185 0 185 -43
0 c-24 0 -47 -3 -50 -7z"/>
<path d="M10140 6104 c-53 -23 -79 -53 -95 -108 -48 -160 82 -289 242 -241 29
9 55 19 57 24 3 5 1 23 -5 40 -11 30 -11 30 -39 16 -44 -23 -104 -19 -136 8
-34 30 -45 108 -21 154 28 54 86 64 168 29 11 -5 19 1 27 19 17 38 16 41 -28
59 -50 20 -124 20 -170 0z"/>
<path d="M10494 6101 c-90 -41 -127 -165 -78 -262 39 -77 140 -111 246 -84 78
20 84 26 68 64 -12 30 -13 30 -41 16 -32 -17 -131 -20 -160 -5 -16 9 -49 58
-49 75 0 3 61 5 135 5 l135 0 0 34 c0 137 -127 215 -256 157z m135 -56 c30
-15 41 -33 41 -66 0 -18 -6 -20 -92 -17 -87 3 -93 4 -90 23 4 29 58 75 88 75
14 0 38 -7 53 -15z"/>
</g>
</svg>
